<?xml version="1.0" encoding="UTF-8" standalone="no"?>
<!DOCTYPE svg PUBLIC "-//W3C//DTD SVG 1.1//EN" "http://www.w3.org/Graphics/SVG/1.1/DTD/svg11.dtd">
<svg version="1.1" xmlns="http://www.w3.org/2000/svg" xmlns:xlink="http://www.w3.org/1999/xlink" preserveAspectRatio="xMidYMid meet" viewBox="0 0 640 640" width="640" height="640"><defs><path d="M383.62 117.43C387.76 117.43 391.12 114.08 391.12 109.93C391.12 105.79 387.76 102.43 383.62 102.43C382.2 102.43 375.08 102.43 362.26 102.43L362.26 87.5C375.08 87.5 382.2 87.5 383.62 87.5C387.76 87.5 391.12 84.15 391.12 80C391.12 75.86 387.76 72.5 383.62 72.5C382.2 72.5 375.08 72.5 362.26 72.5L362.26 57.57C375.08 57.57 382.2 57.57 383.62 57.57C387.76 57.57 391.12 54.22 391.12 50.07C391.12 45.93 387.76 42.57 383.62 42.57C380.73 42.57 357.65 42.57 354.76 42.57C350.62 42.57 347.26 45.93 347.26 50.07C347.26 56.06 347.26 103.95 347.26 109.93C347.26 114.08 350.62 117.43 354.76 117.43C360.53 117.43 380.73 117.43 383.62 117.43Z" id="j1ElcvRyKz"></path><path d="M303.45 57.57C303.45 88.99 303.45 106.44 303.45 109.93C303.45 114.08 306.8 117.43 310.95 117.43C315.09 117.43 318.45 114.08 318.45 109.93C318.45 106.44 318.45 88.99 318.45 57.57C322.9 57.57 325.38 57.57 325.88 57.57C330.02 57.57 333.38 54.22 333.38 50.07C333.38 45.93 330.02 42.57 325.88 42.57C322.89 42.57 299 42.57 296.02 42.57C291.87 42.57 288.52 45.93 288.52 50.07C288.52 54.22 291.87 57.57 296.02 57.57C297.01 57.57 299.48 57.57 303.45 57.57Z" id="cDr52pLmN"></path><path d="M268.02 117.43C272.17 117.43 275.52 114.08 275.52 109.93C275.52 103.95 275.52 56.06 275.52 50.07C275.52 45.93 272.17 42.57 268.02 42.57C265.04 42.57 241.15 42.57 238.16 42.57C234.02 42.57 230.66 45.93 230.66 50.07C230.66 56.06 230.66 103.95 230.66 109.93C230.66 114.08 234.02 117.43 238.16 117.43C244.13 117.43 265.04 117.43 268.02 117.43ZM245.66 57.57L260.52 57.57L260.52 102.43L245.66 102.43L245.66 57.57Z" id="ind4ZVXS0"></path><path d="M450.12 509.62C450.12 309.67 450.12 198.58 450.12 176.36C461.81 173.09 470.4 162.36 470.4 149.67C470.4 140.17 462.66 132.44 453.14 132.44C452.94 132.44 451.93 132.44 450.12 132.44C450.12 118.94 450.12 111.44 450.12 109.94C450.12 105.79 446.76 102.44 442.62 102.44C441.2 102.44 434.08 102.44 421.26 102.44C421.26 71.02 421.26 53.56 421.26 50.07C421.26 45.93 417.9 42.57 413.76 42.57C409.62 42.57 406.26 45.93 406.26 50.07C406.26 56.06 406.26 103.95 406.26 109.93C406.26 114.08 409.62 117.43 413.76 117.43C415.18 117.43 422.3 117.43 435.12 117.43L435.12 132.43L185.66 132.43L185.66 87.5L200.52 87.5C200.52 100.96 200.52 108.44 200.52 109.93C200.52 114.08 203.88 117.43 208.02 117.43C212.17 117.43 215.52 114.08 215.52 109.93C215.52 103.95 215.52 56.06 215.52 50.07C215.52 45.93 212.17 42.57 208.02 42.57C203.88 42.57 200.52 45.93 200.52 50.07C200.52 51.57 200.52 59.05 200.52 72.51L185.66 72.51C185.66 59.05 185.66 51.57 185.66 50.07C185.66 45.93 182.31 42.57 178.16 42.57C174.02 42.57 170.66 45.93 170.66 50.07C170.66 55.56 170.66 83.02 170.66 132.43C168.85 132.43 167.84 132.43 167.64 132.43C158.12 132.43 150.38 140.16 150.38 149.67C150.38 162.36 158.97 173.09 170.66 176.36C170.66 198.58 170.66 309.66 170.66 509.62C148.52 509.62 136.22 509.62 133.77 509.62C124.24 509.62 116.49 517.35 116.49 526.85C116.49 542.14 128.97 554.57 144.31 554.57C176.94 554.57 438.03 554.57 470.66 554.57C486 554.57 498.49 542.14 498.49 526.85C498.49 517.35 490.73 509.62 481.21 509.62C477.06 509.62 466.7 509.62 450.12 509.62ZM144.31 539.57C137.24 539.57 131.49 533.87 131.49 526.85C131.49 525.62 132.51 524.62 133.77 524.62C157.93 524.62 351.24 524.62 375.41 524.62C379.55 524.62 382.91 521.27 382.91 517.12C382.91 512.98 379.55 509.62 375.41 509.62C372.91 509.62 360.4 509.62 337.89 509.62C337.89 431.78 337.89 388.54 337.89 379.89C337.89 375.75 334.53 372.39 330.39 372.39C326.39 372.39 294.39 372.39 290.39 372.39C286.25 372.39 282.89 375.75 282.89 379.89C282.89 388.54 282.89 431.78 282.89 509.62L185.66 509.62L185.66 177.49C202.09 177.49 211.21 177.49 213.04 177.49C217.18 177.49 220.54 174.14 220.54 169.99C220.54 165.85 217.18 162.49 213.04 162.49C210.71 162.49 199.09 162.49 178.16 162.49C178.16 162.43 178.16 162.4 178.16 162.39C171.11 162.39 165.38 156.68 165.38 149.67C165.38 148.44 166.39 147.44 167.64 147.44C196.19 147.44 424.59 147.44 453.14 147.44C454.39 147.44 455.4 148.44 455.4 149.67C455.4 156.68 449.67 162.39 442.62 162.39C442.62 162.4 442.62 162.43 442.62 162.49C325.95 162.49 261.14 162.49 248.18 162.49C244.03 162.49 240.68 165.85 240.68 169.99C240.68 174.14 244.03 177.49 248.18 177.49C260.64 177.49 322.95 177.49 435.12 177.49L435.12 509.62C420.27 509.62 412.02 509.62 410.38 509.62C406.23 509.62 402.88 512.98 402.88 517.12C402.88 521.27 406.23 524.62 410.38 524.62C417.46 524.62 474.12 524.62 481.21 524.62C482.46 524.62 483.49 525.62 483.49 526.85C483.49 533.87 477.73 539.57 470.66 539.57C405.39 539.57 176.94 539.57 144.31 539.57ZM322.89 402.39L297.89 402.39L297.89 387.39L322.89 387.39L322.89 402.39ZM297.89 417.39L322.89 417.39L322.89 509.62L297.89 509.62L297.89 417.39Z" id="b1xOIDw84n"></path><path d="M208.18 192.62C204.03 192.62 200.68 195.97 200.68 200.12C200.68 206.12 200.68 254.12 200.68 260.12C200.68 264.26 204.03 267.62 208.18 267.62C212.18 267.62 244.18 267.62 248.18 267.62C252.32 267.62 255.68 264.26 255.68 260.12C255.68 254.12 255.68 206.12 255.68 200.12C255.68 195.97 252.32 192.62 248.18 192.62C240.18 192.62 212.18 192.62 208.18 192.62ZM240.68 207.62L240.68 222.62L215.68 222.62L215.68 207.62L240.68 207.62ZM215.68 252.62L215.68 237.62L240.68 237.62L240.68 252.62L215.68 252.62Z" id="bGTJOZ3q"></path><path d="M208.18 282.45C204.03 282.45 200.68 285.81 200.68 289.95C200.68 295.95 200.68 343.95 200.68 349.95C200.68 354.1 204.03 357.45 208.18 357.45C212.18 357.45 244.18 357.45 248.18 357.45C252.32 357.45 255.68 354.1 255.68 349.95C255.68 343.95 255.68 295.95 255.68 289.95C255.68 285.81 252.32 282.45 248.18 282.45C240.18 282.45 212.18 282.45 208.18 282.45ZM240.68 297.45L240.68 312.45L215.68 312.45L215.68 297.45L240.68 297.45ZM215.68 342.45L215.68 327.45L240.68 327.45L240.68 342.45L215.68 342.45Z" id="dMcCYQrvL"></path><path d="M208.18 372.39C204.03 372.39 200.68 375.75 200.68 379.89C200.68 389.07 200.68 462.49 200.68 471.67C200.68 475.82 204.03 479.17 208.18 479.17C212.18 479.17 244.18 479.17 248.18 479.17C252.32 479.17 255.68 475.82 255.68 471.67C255.68 462.49 255.68 389.07 255.68 379.89C255.68 375.75 252.32 372.39 248.18 372.39C240.18 372.39 212.18 372.39 208.18 372.39ZM240.68 387.39L240.68 402.39L215.68 402.39L215.68 387.39L240.68 387.39ZM215.68 464.17L215.68 417.39L240.68 417.39L240.68 464.17L215.68 464.17Z" id="d3RciZUBl"></path><path d="M290.39 192.62C286.25 192.62 282.89 195.97 282.89 200.12C282.89 206.12 282.89 254.12 282.89 260.12C282.89 264.26 286.25 267.62 290.39 267.62C294.39 267.62 326.39 267.62 330.39 267.62C334.53 267.62 337.89 264.26 337.89 260.12C337.89 254.12 337.89 206.12 337.89 200.12C337.89 195.97 334.53 192.62 330.39 192.62C322.39 192.62 294.39 192.62 290.39 192.62ZM322.89 207.62L322.89 222.62L297.89 222.62L297.89 207.62L322.89 207.62ZM297.89 252.62L297.89 237.62L322.89 237.62L322.89 252.62L297.89 252.62Z" id="f4l9z0BxY7"></path><path d="M290.39 282.45C286.25 282.45 282.89 285.81 282.89 289.95C282.89 295.95 282.89 343.95 282.89 349.95C282.89 354.1 286.25 357.45 290.39 357.45C294.39 357.45 326.39 357.45 330.39 357.45C334.53 357.45 337.89 354.1 337.89 349.95C337.89 343.95 337.89 295.95 337.89 289.95C337.89 285.81 334.53 282.45 330.39 282.45C322.39 282.45 294.39 282.45 290.39 282.45ZM322.89 297.45L322.89 312.45L297.89 312.45L297.89 297.45L322.89 297.45ZM297.89 342.45L297.89 327.45L322.89 327.45L322.89 342.45L297.89 342.45Z" id="bEg8nxmec"></path><path d="M412.89 267.62C417.03 267.62 420.39 264.26 420.39 260.12C420.39 254.12 420.39 206.12 420.39 200.12C420.39 195.97 417.03 192.62 412.89 192.62C408.89 192.62 376.89 192.62 372.89 192.62C368.75 192.62 365.39 195.97 365.39 200.12C365.39 206.12 365.39 254.12 365.39 260.12C365.39 264.26 368.75 267.62 372.89 267.62C380.89 267.62 408.89 267.62 412.89 267.62ZM380.39 252.62L380.39 237.62L405.39 237.62L405.39 252.62L380.39 252.62ZM405.39 207.62L405.39 222.62L380.39 222.62L380.39 207.62L405.39 207.62Z" id="a62FIa1yZ9"></path><path d="M412.89 357.45C417.03 357.45 420.39 354.1 420.39 349.95C420.39 343.95 420.39 295.95 420.39 289.95C420.39 285.81 417.03 282.45 412.89 282.45C408.89 282.45 376.89 282.45 372.89 282.45C368.75 282.45 365.39 285.81 365.39 289.95C365.39 295.95 365.39 343.95 365.39 349.95C365.39 354.1 368.75 357.45 372.89 357.45C380.89 357.45 408.89 357.45 412.89 357.45ZM380.39 342.45L380.39 327.45L405.39 327.45L405.39 342.45L380.39 342.45ZM405.39 297.45L405.39 312.45L380.39 312.45L380.39 297.45L405.39 297.45Z" id="d4A2yfC4e"></path><path d="M420.39 379.89C420.39 375.75 417.03 372.39 412.89 372.39C408.89 372.39 376.89 372.39 372.89 372.39C368.75 372.39 365.39 375.75 365.39 379.89C365.39 389.07 365.39 462.5 365.39 471.67C365.39 475.82 368.75 479.17 372.89 479.17C376.89 479.17 408.89 479.17 412.89 479.17C417.03 479.17 420.39 475.82 420.39 471.67C420.39 453.32 420.39 389.07 420.39 379.89ZM405.39 387.39L405.39 402.39L380.39 402.39L380.39 387.39L405.39 387.39ZM380.39 464.17L380.39 417.39L405.39 417.39L405.39 464.17L380.39 464.17Z" id="g2qxs2w15"></path></defs><g><g><g><use xlink:href="#j1ElcvRyKz" opacity="1" fill="#32d081" fill-opacity="1"></use><g><use xlink:href="#j1ElcvRyKz" opacity="1" fill-opacity="0" stroke="#000000" stroke-width="1" stroke-opacity="0"></use></g></g><g><use xlink:href="#cDr52pLmN" opacity="1" fill="#32d081" fill-opacity="1"></use><g><use xlink:href="#cDr52pLmN" opacity="1" fill-opacity="0" stroke="#000000" stroke-width="1" stroke-opacity="0"></use></g></g><g><use xlink:href="#ind4ZVXS0" opacity="1" fill="#32d081" fill-opacity="1"></use><g><use xlink:href="#ind4ZVXS0" opacity="1" fill-opacity="0" stroke="#000000" stroke-width="1" stroke-opacity="0"></use></g></g><g><use xlink:href="#b1xOIDw84n" opacity="1" fill="#32d081" fill-opacity="1"></use><g><use xlink:href="#b1xOIDw84n" opacity="1" fill-opacity="0" stroke="#000000" stroke-width="1" stroke-opacity="0"></use></g></g><g><use xlink:href="#bGTJOZ3q" opacity="1" fill="#32d081" fill-opacity="1"></use><g><use xlink:href="#bGTJOZ3q" opacity="1" fill-opacity="0" stroke="#000000" stroke-width="1" stroke-opacity="0"></use></g></g><g><use xlink:href="#dMcCYQrvL" opacity="1" fill="#32d081" fill-opacity="1"></use><g><use xlink:href="#dMcCYQrvL" opacity="1" fill-opacity="0" stroke="#000000" stroke-width="1" stroke-opacity="0"></use></g></g><g><use xlink:href="#d3RciZUBl" opacity="1" fill="#32d081" fill-opacity="1"></use><g><use xlink:href="#d3RciZUBl" opacity="1" fill-opacity="0" stroke="#000000" stroke-width="1" stroke-opacity="0"></use></g></g><g><use xlink:href="#f4l9z0BxY7" opacity="1" fill="#32d081" fill-opacity="1"></use><g><use xlink:href="#f4l9z0BxY7" opacity="1" fill-opacity="0" stroke="#000000" stroke-width="1" stroke-opacity="0"></use></g></g><g><use xlink:href="#bEg8nxmec" opacity="1" fill="#32d081" fill-opacity="1"></use><g><use xlink:href="#bEg8nxmec" opacity="1" fill-opacity="0" stroke="#000000" stroke-width="1" stroke-opacity="0"></use></g></g><g><use xlink:href="#a62FIa1yZ9" opacity="1" fill="#32d081" fill-opacity="1"></use><g><use xlink:href="#a62FIa1yZ9" opacity="1" fill-opacity="0" stroke="#000000" stroke-width="1" stroke-opacity="0"></use></g></g><g><use xlink:href="#d4A2yfC4e" opacity="1" fill="#32d081" fill-opacity="1"></use><g><use xlink:href="#d4A2yfC4e" opacity="1" fill-opacity="0" stroke="#000000" stroke-width="1" stroke-opacity="0"></use></g></g><g><use xlink:href="#g2qxs2w15" opacity="1" fill="#32d081" fill-opacity="1"></use><g><use xlink:href="#g2qxs2w15" opacity="1" fill-opacity="0" stroke="#000000" stroke-width="1" stroke-opacity="0"></use></g></g></g></g></svg>